<svg width="536" height="372" viewBox="0 0 536 372" fill="none" xmlns="http://www.w3.org/2000/svg">
<path opacity="0.1" d="M309.546 61.5037C275.399 60.2704 242.873 48.7778 211.818 36.2042C180.764 23.6307 149.996 9.70587 116.669 3.0432C95.2304 -1.24135 70.7136 -1.84571 53.442 10.1333C36.8303 21.6407 31.4471 41.5648 28.5622 60.0297C26.3891 73.9201 25.1116 88.5278 31.0605 101.549C35.1946 110.579 42.5341 118.171 47.6109 126.819C65.2644 156.914 52.7962 194.03 33.6484 223.412C24.6921 237.2 14.2603 250.348 7.33564 265.02C0.410971 279.691 -2.79446 296.51 3.26286 311.477C9.27304 326.315 23.5843 337.459 39.0883 345.296C70.5816 361.216 107.694 365.775 143.882 368.355C223.99 374.064 304.526 371.593 384.846 369.117C414.571 368.198 444.424 367.269 473.669 362.479C489.904 359.82 506.666 355.6 518.451 345.404C533.417 332.462 537.127 310.548 527.096 294.304C510.277 267.088 463.765 260.327 452.009 231.117C445.537 215.04 452.183 197.125 461.587 182.218C481.763 150.226 515.58 122.161 517.362 85.5994C518.588 60.4866 502.329 35.3345 477.195 23.4538C450.845 10.9981 414.312 12.5655 394.872 33.1824C374.871 54.4283 339.696 62.5945 309.546 61.5037Z" fill="#C4C4C4"/>
<path d="M371.747 186.747L376.138 185.986C376.559 185.912 376.977 185.822 377.398 185.746C370.448 181.422 365.172 174.858 362.437 167.132C359.702 159.406 359.671 150.977 362.348 143.23C365.025 135.484 370.252 128.881 377.169 124.505C384.087 120.13 392.283 118.242 400.413 119.153L394.657 132.878L408.293 120.946C408.325 120.954 408.356 120.964 408.386 120.977C412.851 122.553 416.962 124.995 420.486 128.164C424.009 131.332 426.875 135.165 428.92 139.444C430.965 143.723 432.15 148.363 432.405 153.101C432.661 157.838 431.983 162.58 430.41 167.054C430.182 167.705 429.911 168.326 429.65 168.955C433.499 167.017 437.192 164.76 440.203 161.871C446.3 156.016 449.64 147.937 453.373 137.983C460.768 118.258 467.888 98.2469 474.724 78.1924C467.185 74.1035 461.347 67.4543 458.259 59.4392C455.172 51.4241 455.037 42.5684 457.879 34.4627C458.245 33.4198 458.67 32.4156 459.119 31.4294C459.232 31.1826 459.345 30.9373 459.463 30.694C459.92 29.7485 460.402 28.8221 460.932 27.933C461.018 27.7873 461.115 27.6509 461.204 27.5067C461.665 26.757 462.151 26.0296 462.662 25.3243C462.853 25.0596 463.042 24.7955 463.239 24.537C463.819 23.7776 464.419 23.0387 465.051 22.3333C465.263 22.0972 465.487 21.8767 465.704 21.6468C466.191 21.1327 466.69 20.6341 467.203 20.1511C467.473 19.8968 467.741 19.6406 468.018 19.3954C468.089 19.3324 468.156 19.2637 468.227 19.2013C468.231 19.2059 468.234 19.2109 468.237 19.2154C474.587 13.6701 482.674 10.5297 491.094 10.3402C499.514 10.1506 507.734 12.9238 514.325 18.1778L506.836 36.0383L520.317 24.2481C525.034 30.2718 527.708 37.6487 527.948 45.3026C528.187 52.9565 525.98 60.4869 521.649 66.7952C521.661 66.7996 521.674 66.803 521.687 66.8074C521.54 67.0242 521.372 67.2226 521.221 67.4355C520.937 67.8352 520.646 68.2277 520.348 68.6131C519.965 69.1073 519.567 69.585 519.161 70.0562C518.855 70.4118 518.552 70.7704 518.233 71.1125C517.767 71.6129 517.278 72.0867 516.785 72.5579C516.498 72.8328 516.223 73.1216 515.928 73.3863C515.153 74.08 514.351 74.7382 513.523 75.361C513.232 75.5791 512.925 75.7715 512.629 75.9803C512.047 76.3904 511.463 76.7944 510.859 77.1686C510.484 77.4007 510.099 77.6129 509.717 77.831C509.163 78.1471 508.605 78.4534 508.036 78.7395C507.632 78.9423 507.226 79.1347 506.815 79.3223C506.23 79.5893 505.639 79.837 505.04 80.0726C504.639 80.2306 504.24 80.3906 503.833 80.5343C503.161 80.7713 502.48 80.9772 501.795 81.1743C501.449 81.2739 501.109 81.3879 500.76 81.4771C499.732 81.7399 498.692 81.9635 497.641 82.1349C497.443 82.1673 497.242 82.1795 497.043 82.2084C496.171 82.3355 495.295 82.4381 494.412 82.5008C494.032 82.5276 493.65 82.5314 493.269 82.5463C492.555 82.5742 491.84 82.5883 491.122 82.5729C490.703 82.564 490.284 82.5423 489.864 82.5186C489.164 82.4789 488.464 82.4178 487.763 82.3353C487.348 82.2872 486.935 82.2395 486.52 82.1766C485.769 82.0624 485.019 81.913 484.269 81.7495C484.22 81.7388 484.171 81.7323 484.121 81.7214C481.236 90.182 478.297 98.6246 475.305 107.049C478.954 103.76 483.236 101.254 487.887 99.6827C492.537 98.1118 497.459 97.5099 502.35 97.914C507.242 98.318 511.999 99.7195 516.33 102.032C520.661 104.345 524.475 107.521 527.538 111.364L515.076 125.177L531.949 118.426C536.048 127.04 536.566 136.931 533.391 145.928C532.291 149.089 530.75 152.078 528.813 154.806C524.644 160.716 518.799 165.234 512.037 167.774C505.274 170.314 497.906 170.759 490.888 169.052C483.871 167.344 477.527 163.562 472.68 158.197C467.833 152.832 464.706 146.13 463.706 138.963C463.389 139.811 463.082 140.671 462.764 141.519C459.47 150.3 455.372 161.229 447.142 169.13C441.564 174.486 434.7 177.883 428.115 180.756C423.827 182.626 419.481 184.355 415.079 185.943C410.185 188.917 404.656 190.683 398.947 191.096C392.001 193.03 384.967 194.644 377.868 195.89L373.441 196.655C369.463 197.338 365.383 198.041 361.335 198.852C361.918 199.025 362.501 199.19 363.081 199.395C370.295 201.939 376.515 206.717 380.842 213.037C385.169 219.357 387.379 226.892 387.152 234.553L359.4 243.09L384.513 247.087C382.215 252.745 378.525 257.727 373.785 261.568C369.046 265.409 363.412 267.984 357.41 269.051C351.409 270.119 345.235 269.644 339.467 267.672C333.698 265.7 328.522 262.295 324.422 257.775C324.677 258.631 324.933 259.485 325.19 260.338C325.699 262.034 326.205 263.72 326.691 265.39C333.299 288.147 330.455 306.047 318.682 315.793L312.293 308.042C323.752 298.556 320.197 279.008 317.06 268.198C316.583 266.558 316.085 264.902 315.584 263.236C311.28 248.907 306.401 232.664 312.72 217.738C322.244 195.242 349.692 190.532 371.747 186.747Z" fill="#F2F2F2"/>
<path d="M363.613 318.712H169.164C162.788 318.712 156.672 316.174 152.164 311.655C147.655 307.136 145.122 301.007 145.122 294.616V205.333C145.122 204.037 145.385 202.754 145.896 201.563C146.407 200.372 147.155 199.297 148.094 198.405L251.133 100.518C255.252 96.6043 260.712 94.4229 266.389 94.4229C272.065 94.4229 277.526 96.6043 281.645 100.518L379.887 193.848C382.341 196.18 384.296 198.988 385.632 202.101C386.967 205.215 387.656 208.568 387.656 211.957V294.616C387.656 297.781 387.034 300.914 385.826 303.837C384.618 306.761 382.847 309.417 380.614 311.655C378.382 313.892 375.731 315.667 372.814 316.878C369.897 318.089 366.771 318.712 363.613 318.712Z" fill="#3F3D56"/>
<path opacity="0.1" d="M145.122 206.798H385.635V304.161C385.635 308.02 384.106 311.721 381.383 314.449C378.66 317.178 374.968 318.711 371.117 318.711H159.639C155.789 318.711 152.096 317.178 149.374 314.449C146.651 311.721 145.122 308.02 145.122 304.161V206.798Z" fill="black"/>
<path d="M342.343 130.081H189.932C182.626 130.081 176.703 136.016 176.703 143.339V296.086C176.703 303.408 182.626 309.344 189.932 309.344H342.343C349.649 309.344 355.572 303.408 355.572 296.086V143.339C355.572 136.016 349.649 130.081 342.343 130.081Z" fill="#F8555A"/>
<path opacity="0.1" d="M355.569 210.825V309.344H176.7V210.825L266.135 254.147L355.569 210.825Z" fill="black"/>
<path d="M266.137 259.716L151.542 204.207C150.834 203.864 150.049 203.706 149.263 203.75C148.477 203.793 147.715 204.036 147.048 204.455C146.381 204.874 145.832 205.457 145.451 206.147C145.07 206.837 144.87 207.613 144.87 208.402V303.908C144.87 305.819 145.245 307.711 145.975 309.476C146.704 311.241 147.774 312.845 149.122 314.196C150.47 315.548 152.07 316.619 153.832 317.35C155.593 318.082 157.481 318.458 159.387 318.458H372.886C374.793 318.458 376.681 318.082 378.442 317.35C380.204 316.619 381.804 315.548 383.152 314.196C384.5 312.845 385.57 311.241 386.299 309.476C387.029 307.711 387.404 305.819 387.404 303.908V210.039C387.404 209.076 387.16 208.129 386.695 207.286C386.23 206.444 385.559 205.733 384.746 205.222C383.932 204.71 383.002 204.414 382.043 204.361C381.083 204.308 380.127 204.5 379.262 204.919L266.137 259.716Z" fill="#3F3D56"/>
<path d="M242.135 146.538H192.113V153.627H242.135V146.538Z" fill="#F2F2F2"/>
<path d="M336.623 172.364H188.07V176.415H336.623V172.364Z" fill="#F2F2F2"/>
<path d="M336.623 186.038H188.07V190.089H336.623V186.038Z" fill="#F2F2F2"/>
<path d="M336.623 199.709H188.07V203.761H336.623V199.709Z" fill="#F2F2F2"/>
<path d="M54.1709 318.458H470.522" stroke="#3F3D56" stroke-miterlimit="10"/>
<path d="M23.3718 256.101C23.3718 285.958 42.0614 310.118 65.1582 310.118L23.3718 256.101Z" fill="#46455B"/>
<path d="M65.1575 310.119C65.1575 279.927 86.014 255.495 111.789 255.495L65.1575 310.119Z" fill="#F8555A"/>
<path d="M38.5112 258.809C38.5112 287.17 50.4292 310.119 65.1576 310.119L38.5112 258.809Z" fill="#F8555A"/>
<path d="M65.1575 310.119C65.1575 271.539 89.2643 240.321 119.056 240.321L65.1575 310.119Z" fill="#46455B"/>
<path d="M56.3674 310.5C56.3674 310.5 62.2934 310.317 64.0794 309.043C65.8653 307.768 73.195 306.246 73.6381 308.29C74.0811 310.335 82.5438 318.457 75.8533 318.511C69.1629 318.565 60.3078 317.466 58.5253 316.378C56.7428 315.29 56.3674 310.5 56.3674 310.5Z" fill="#A8A8A8"/>
<path opacity="0.2" d="M75.9727 317.799C69.2823 317.853 60.4272 316.755 58.6447 315.666C57.2872 314.838 56.7463 311.864 56.5653 310.492C56.4399 310.498 56.3674 310.5 56.3674 310.5C56.3674 310.5 56.7428 315.29 58.5253 316.378C60.3078 317.466 69.163 318.565 75.8533 318.511C77.7846 318.495 78.4517 317.806 78.4151 316.786C78.1468 317.403 77.4102 317.787 75.9727 317.799Z" fill="black"/>
<path d="M387.03 92.7472C386.726 95.4587 384.662 97.643 383.898 100.262C382.747 104.203 384.737 108.433 387.459 111.502C389.656 113.953 392.315 115.943 395.285 117.356C398.254 118.769 401.474 119.577 404.757 119.734C405.721 119.819 406.693 119.713 407.617 119.421C408.441 119.089 409.184 118.58 409.793 117.931C411.843 115.868 412.943 113.01 413.382 110.131C413.82 107.253 413.65 104.321 413.478 101.415C413.479 100.814 413.37 100.218 413.157 99.6563C412.877 99.1214 412.493 98.6483 412.028 98.2651C410.552 96.9082 408.926 95.7246 407.182 94.7374C406.394 94.3834 405.699 93.8503 405.152 93.1803C404.822 92.6063 404.609 91.9728 404.524 91.3161L403.989 88.5821C403.893 87.7942 403.625 87.0374 403.203 86.3659C402.257 85.0874 400.448 84.9134 398.861 84.851L393.048 84.6225C391.24 84.5514 388.857 84.0317 387.092 84.3876C385.443 84.72 385.991 86.2423 386.29 87.6285C386.725 89.3022 386.973 91.0189 387.03 92.7472Z" fill="#A0616A"/>
<path opacity="0.1" d="M387.03 92.7472C386.726 95.4587 384.662 97.643 383.898 100.262C382.747 104.203 384.737 108.433 387.459 111.502C389.656 113.953 392.315 115.943 395.285 117.356C398.254 118.769 401.474 119.577 404.757 119.734C405.721 119.819 406.693 119.713 407.617 119.421C408.441 119.089 409.184 118.58 409.793 117.931C411.843 115.868 412.943 113.01 413.382 110.131C413.82 107.253 413.65 104.321 413.478 101.415C413.479 100.814 413.37 100.218 413.157 99.6563C412.877 99.1214 412.493 98.6483 412.028 98.2651C410.552 96.9082 408.926 95.7246 407.182 94.7374C406.394 94.3834 405.699 93.8503 405.152 93.1803C404.822 92.6063 404.609 91.9728 404.524 91.3161L403.989 88.5821C403.893 87.7942 403.625 87.0374 403.203 86.3659C402.257 85.0874 400.448 84.9134 398.861 84.851L393.048 84.6225C391.24 84.5514 388.857 84.0317 387.092 84.3876C385.443 84.72 385.991 86.2423 386.29 87.6285C386.725 89.3022 386.973 91.0189 387.03 92.7472Z" fill="black"/>
<path d="M424.009 214.794C423.186 223.844 422.362 232.893 421.539 241.94C420.894 249.061 420.237 256.21 418.972 263.239C418.535 265.661 418.024 268.07 417.416 270.459C415.728 277.091 413.278 283.574 412.487 290.373C412.462 290.569 412.442 290.769 412.421 290.969C412.332 292.473 412.048 293.958 411.576 295.388C411.181 296.426 410.574 297.372 410.145 298.398C409.293 300.449 409.18 302.717 409.076 304.939C406.077 303.248 402.793 302.123 399.389 301.62C397.746 301.374 395.916 301.199 394.797 299.969C393.557 298.61 393.694 296.53 393.902 294.704C394.555 289.035 395.207 283.368 395.857 277.704C396.069 275.267 396.483 272.852 397.093 270.484C397.317 269.696 397.588 268.921 397.862 268.145C398.241 267.078 398.623 266.011 398.91 264.914C399.324 263.143 399.613 261.345 399.776 259.533C400.445 253.83 401.252 248.139 401.959 242.441L401.997 242.141C403.058 233.503 403.864 224.824 403.632 216.123C403.598 214.835 403.544 213.547 403.461 212.255C403.345 210.383 403.174 209.391 404.721 208.219C406.431 206.927 408.681 206.022 410.636 205.176C411.689 204.718 423.277 200.595 423.548 201.499C424.091 203.429 424.377 205.422 424.396 207.427C424.404 209.888 424.275 212.347 424.009 214.794Z" fill="#605D82"/>
<path opacity="0.1" d="M418.972 263.24C418.536 265.662 418.024 268.071 417.417 270.46C415.728 277.092 413.278 283.575 412.488 290.374C412.463 290.57 412.442 290.77 412.421 290.97C407.255 283.575 402.904 275.621 397.863 268.146C398.241 267.079 398.624 266.012 398.911 264.915C399.324 263.144 399.613 261.346 399.776 259.534C400.446 253.831 401.253 248.14 401.96 242.442L401.997 242.142C402.293 243.351 402.716 244.527 403.258 245.648C406.643 252.543 414.688 256.028 418.623 262.627C418.744 262.831 418.86 263.035 418.972 263.24Z" fill="black"/>
<path d="M377.052 202.61C377.223 208.14 378.106 213.62 378.987 219.082L380.806 230.352C381.802 236.519 382.838 242.812 385.75 248.337C387.929 252.469 391.068 255.995 393.907 259.703C400.888 268.817 406.132 279.141 412.751 288.523C414.675 291.249 417.425 294.198 420.709 293.629C422.864 293.255 424.429 291.457 426.123 290.071C428.12 288.436 430.527 287.24 432.098 285.191C433.67 283.143 433.978 279.737 431.849 278.279C431.078 277.851 430.261 277.516 429.412 277.28C426.112 276.022 423.976 272.792 422.617 269.526C421.257 266.26 420.434 262.748 418.623 259.711C414.688 253.112 406.642 249.627 403.256 242.729C401.359 238.866 401.178 234.413 401.033 230.11L400.663 219.14C400.623 217.941 400.591 216.693 401.078 215.597C402.373 212.677 406.285 212.405 409.452 212.034C413.047 211.612 416.529 210.511 419.714 208.79C421.538 207.802 423.321 206.544 424.296 204.711C425.187 203.038 425.31 201.077 425.414 199.184L426.511 179.304C426.605 177.594 426.691 175.825 426.09 174.222C424.579 170.196 419.507 168.88 415.219 169.072C407.241 169.43 399.875 172.869 392.353 175.192C390.489 175.781 388.598 176.276 386.685 176.674C384.997 177.013 382.953 176.872 381.343 177.416C378.48 178.384 378.552 184.66 378.146 187.264C377.308 192.334 376.941 197.472 377.052 202.61Z" fill="#605D82"/>
<path d="M419.624 294.463C420.327 295.174 420.557 296.215 420.74 297.2C421.757 302.66 422.285 308.201 422.32 313.755C422.273 314.273 422.376 314.794 422.617 315.255C422.815 315.53 423.084 315.746 423.394 315.881C425.428 316.852 427.788 315.499 429.482 314.011C432.623 311.254 435.281 307.552 435.459 303.371C435.427 302.294 435.464 301.216 435.572 300.144C435.848 298.57 436.765 297.199 437.573 295.821C438.949 293.476 440.058 290.984 440.88 288.391C441.189 287.417 441.395 286.191 440.633 285.511C440.363 285.299 440.056 285.139 439.728 285.04L430.543 281.622C429.747 281.326 427.766 286.425 427.452 286.982C426.683 288.346 425.918 289.12 424.375 289.434C422.801 289.756 420.926 289.295 419.457 290.082C416.971 291.414 418.216 293.04 419.624 294.463Z" fill="#535070"/>
<path d="M405.452 297.609C405.281 297.269 405.043 296.966 404.753 296.721C404.327 296.45 403.844 296.286 403.342 296.24C401.594 295.943 399.521 295.747 398.314 297.05C397.183 298.271 397.377 300.26 396.431 301.631C396.132 302.065 395.726 302.422 395.466 302.881C395.144 303.583 394.999 304.353 395.043 305.124C394.994 307.249 394.945 309.377 395.092 311.497C395.214 313.273 395.513 315.134 396.622 316.526C398.401 318.76 401.61 319.081 404.458 319.226L406.765 319.343C407.4 319.421 408.044 319.362 408.655 319.17C409.033 318.995 409.372 318.745 409.652 318.436C409.932 318.128 410.148 317.766 410.286 317.372C411.486 314.381 409.585 311.158 408.413 308.156C407.067 304.704 407.309 300.872 405.452 297.609Z" fill="#535070"/>
<path d="M386.36 77.47C386.332 77.1667 386.376 76.8611 386.49 76.5786C386.827 75.9799 387.71 76.1429 388.375 76.311C391.052 76.9873 393.872 76.3751 396.627 76.5331C399.383 76.6911 402.487 78.0717 403.041 80.7816C405.041 79.3605 406.765 77.5851 408.128 75.5427C408.893 74.3958 409.56 73.082 409.456 71.7064C409.305 69.7224 407.644 68.2386 406.106 66.9803L401.522 63.2295C400.92 62.6753 400.225 62.2324 399.469 61.9216C398.411 61.559 397.256 61.7317 396.137 61.7324C392.8 61.7346 389.242 60.2125 386.274 61.7415C385.034 62.3802 384.101 63.4748 383.201 64.542L379.109 69.3963C378.801 69.7056 378.576 70.088 378.455 70.5079C378.339 71.1004 378.643 71.6852 378.749 72.2796C378.942 73.3641 378.476 74.5214 378.834 75.5629C379.429 77.2918 381.523 77.5365 382.804 78.5277C383.281 78.8971 384.029 80.149 384.598 80.1337C385.624 80.1061 386.333 78.2688 386.36 77.47Z" fill="#3F3D56"/>
<path d="M393.303 91.7788C400.54 91.7788 406.406 85.8996 406.406 78.6472C406.406 71.3948 400.54 65.5156 393.303 65.5156C386.067 65.5156 380.201 71.3948 380.201 78.6472C380.201 85.8996 386.067 91.7788 393.303 91.7788Z" fill="#A0616A"/>
<path d="M396.372 107.386C395.927 106.11 395.089 105.009 393.978 104.243C392.867 103.477 391.541 103.085 390.193 103.125C389.807 103.197 389.408 103.146 389.053 102.98C388.852 102.825 388.691 102.624 388.584 102.393C387.788 100.957 387.147 99.4399 386.674 97.8669C386.465 97.1718 386.179 96.3524 385.478 96.1717C385.187 96.1336 384.892 96.1753 384.623 96.2924C384.354 96.4096 384.123 96.5976 383.952 96.8366C383.619 97.3175 383.255 97.7762 382.862 98.2096C381.214 99.6864 378.293 98.3404 376.544 99.6952C376.258 99.9165 376.023 100.2 375.723 100.401C375.422 100.582 375.098 100.722 374.76 100.815C371.383 101.92 368.072 103.219 364.844 104.707C366.007 111.729 367.199 118.874 369.926 125.446C371.224 128.574 372.695 131.637 373.734 134.861C376.037 142.003 376.139 149.644 376.165 157.15C376.183 162.287 376.157 167.533 374.499 172.394C374.053 173.468 373.738 174.593 373.562 175.743C373.462 176.901 373.799 178.178 374.735 178.864C375.278 179.22 375.899 179.439 376.545 179.501C379.418 179.924 382.315 179.157 385.144 178.501C392.727 176.741 400.462 175.734 408.181 174.729L421.116 173.046C422.043 172.983 422.951 172.748 423.792 172.353C426.159 171.054 426.384 167.485 424.914 165.217C424.209 164.13 423.215 163.238 422.623 162.085C422.031 160.932 421.98 159.32 423 158.522C425.073 156.898 424.455 153.884 424.553 151.249C424.83 143.88 424.793 136.507 424.441 129.132C424.337 127.606 424.313 126.075 424.368 124.546C424.598 121.954 425.076 119.391 425.795 116.891L429.725 101.382C428.698 99.7556 426.732 98.7239 424.87 98.2555C423.008 97.7871 421.068 97.6492 419.234 97.0797C415.477 95.9128 412.131 92.9515 408.207 93.2275C407.911 93.2329 407.619 93.3043 407.353 93.4367C406.468 93.9391 406.608 95.2173 406.551 96.2351C406.426 98.487 404.774 100.369 402.949 101.689C401.124 103.008 399.039 103.97 397.363 105.475C397.066 105.699 396.823 105.988 396.651 106.318C396.48 106.649 396.384 107.014 396.372 107.386Z" fill="#3F3D56"/>
<path d="M344.454 122.097C343.585 122.662 342.662 123.139 341.698 123.519C340.754 123.8 339.863 124.234 339.058 124.803C338.687 125.124 338.376 125.509 338.14 125.939C337.696 126.728 337.472 127.621 337.491 128.526C337.509 129.43 337.769 130.314 338.245 131.083C338.72 131.853 339.392 132.48 340.192 132.9C340.992 133.321 341.89 133.518 342.791 133.472C343.99 133.337 345.155 132.989 346.231 132.444L355.473 128.43C357.037 127.751 358.726 126.955 359.466 125.415C359.552 125.272 359.584 125.102 359.556 124.937C359.481 124.762 359.346 124.62 359.176 124.537C357.092 123.18 355.269 121.457 353.795 119.452C353.416 118.936 352.952 117.717 352.416 117.408C350.46 116.279 346.02 121.079 344.454 122.097Z" fill="#A0616A"/>
<path d="M443.251 118.804L446.658 122.704C447.39 123.542 448.122 124.38 448.789 125.27C450.426 127.532 451.74 130.012 452.691 132.638C453.432 134.586 454.047 136.66 453.788 138.728C453.616 139.789 453.33 140.827 452.936 141.826C452.311 143.746 451.537 145.615 450.62 147.414C449.849 148.781 448.979 150.089 448.015 151.327C445.377 154.831 442.491 158.14 439.378 161.228C438.213 162.384 437.725 164.252 437.218 165.814C436.282 168.696 434.057 170.94 431.905 173.068C431.213 173.8 430.449 174.459 429.624 175.035C428.387 175.833 426.943 176.245 425.472 176.22C424.829 176.224 424.191 176.092 423.602 175.832C422.13 175.131 421.381 173.424 421.228 171.798C421.091 170.322 421.338 168.835 421.944 167.483C423.899 163.142 428.92 161.261 432.469 158.094C434.55 156.237 436.141 153.904 437.711 151.597C438.777 150.156 439.667 148.593 440.362 146.94C441.154 144.821 440.846 142.311 441.538 140.157C441.831 139.246 442.351 138.424 442.666 137.521C442.981 136.618 443.06 135.545 442.51 134.764C442.094 134.267 441.565 133.879 440.967 133.632C438.7 132.479 436.161 130.995 435.727 128.484C435.554 127.092 435.917 125.686 436.742 124.552C437.564 123.434 438.525 122.425 439.601 121.549C440.592 120.671 442.26 119.682 443.251 118.804Z" fill="#A0616A"/>
<path d="M342.267 127.543C341.666 126.325 340.914 125.082 339.7 124.477C339.111 124.221 338.477 124.087 337.835 124.085C337.193 124.082 336.558 124.21 335.967 124.461C334.79 124.97 333.688 125.638 332.692 126.446L329.755 128.616C329.089 129.054 328.5 129.599 328.011 130.229C327.548 130.993 327.239 131.842 327.103 132.726C326.591 134.742 326.435 136.832 326.641 138.902C327.108 142.221 329.104 145.119 331.302 147.645C332.675 149.224 334.371 150.817 336.459 150.885C337.361 150.914 338.364 150.557 338.739 149.735C338.869 149.409 338.938 149.062 338.942 148.711C339.168 145.009 337.847 141.393 336.306 138.021C335.814 137.138 335.524 136.157 335.456 135.148C335.444 134.978 335.489 134.809 335.581 134.667C335.714 134.528 335.892 134.441 336.082 134.422C338.191 134.003 341.824 135.645 343.304 133.298C344.263 131.776 342.949 128.923 342.267 127.543Z" fill="#A0616A"/>
<path d="M385.673 73.3381C385.645 73.0349 385.689 72.7293 385.803 72.4468C386.14 71.8481 387.023 72.011 387.688 72.1792C390.364 72.8554 393.184 72.2433 395.94 72.4013C398.696 72.5593 401.8 73.9399 402.354 76.6497C404.354 75.2287 406.078 73.4532 407.441 71.4109C408.206 70.2639 408.872 68.9502 408.768 67.5746C408.618 65.5906 406.957 64.1068 405.419 62.8485L400.835 59.0976C400.233 58.5434 399.538 58.1006 398.782 57.7897C397.723 57.4271 396.569 57.5999 395.45 57.6006C392.113 57.6028 388.555 56.0806 385.587 57.6097C384.347 58.2484 383.414 59.3429 382.514 60.4102L378.422 65.2645C378.114 65.5738 377.889 65.9562 377.768 66.376C377.652 66.9686 377.956 67.5533 378.062 68.1478C378.255 69.2323 377.789 70.3896 378.147 71.431C378.742 73.1599 380.836 73.4047 382.117 74.3958C382.594 74.7652 383.342 76.0172 383.911 76.0019C384.937 75.9743 385.646 74.137 385.673 73.3381Z" fill="#3F3D56"/>
<path d="M357.844 109.325C357.315 109.667 356.851 110.1 356.473 110.604C355.992 111.332 355.895 112.251 355.482 113.02C354.599 114.664 352.534 115.249 351.245 116.599C351.041 116.784 350.898 117.029 350.838 117.299C350.832 117.665 350.954 118.021 351.184 118.306L357.398 128.096C359.466 128.278 361.451 126.979 363.521 127.152C364.293 127.216 365.084 127.484 365.825 127.255C366.356 127.019 366.853 126.714 367.304 126.348C368.539 125.566 370.183 125.475 371.219 124.442C372.213 123.452 372.34 121.902 372.328 120.497C372.345 119.276 372.221 118.058 371.959 116.867C371.044 113.109 368.177 110.226 366.379 106.897C365.504 105.277 365.028 104.328 363.175 105.441C361.313 106.559 359.597 108.041 357.844 109.325Z" fill="#3F3D56"/>
<path d="M433.303 104.373C434.471 105.133 435.524 106.057 436.429 107.117C437.376 108.341 437.912 109.838 438.821 111.089C439.702 112.302 440.902 113.241 441.902 114.358C443.418 116.052 444.445 118.118 445.453 120.157C442.99 123.376 440.304 126.418 437.416 129.26C437.094 129.64 436.671 129.919 436.196 130.064C435.872 130.098 435.546 130.052 435.244 129.929C434.943 129.806 434.677 129.61 434.47 129.359C434.023 128.889 433.706 128.309 433.278 127.82C432.268 126.776 430.923 126.124 429.479 125.979C428.049 125.84 426.609 125.82 425.175 125.919C424.861 125.955 424.542 125.901 424.256 125.765C424.044 125.617 423.871 125.419 423.755 125.188C422.072 122.319 422.614 118.717 423.207 115.443L424.569 107.931C424.766 106.496 425.147 105.093 425.702 103.755C426.218 102.651 427.372 100.777 428.79 101.108C430.22 101.441 432.1 103.506 433.303 104.373Z" fill="#3F3D56"/>
<path d="M184.028 153.703C195.469 153.703 204.745 144.39 204.745 132.903C204.745 121.415 195.469 112.103 184.028 112.103C172.587 112.103 163.312 121.415 163.312 132.903C163.312 144.39 172.587 153.703 184.028 153.703Z" fill="white"/>
<path d="M184.028 108.559C179.131 108.559 174.344 110.014 170.272 112.74C166.201 115.467 163.027 119.342 161.153 123.876C159.28 128.41 158.789 133.399 159.745 138.213C160.7 143.026 163.058 147.447 166.52 150.918C169.983 154.388 174.395 156.751 179.197 157.708C184 158.666 188.978 158.174 193.502 156.296C198.026 154.418 201.893 151.238 204.614 147.157C207.334 143.077 208.786 138.279 208.786 133.372C208.767 126.797 206.152 120.497 201.513 115.848C196.874 111.198 190.588 108.578 184.028 108.559ZM178.945 146.602L166.256 133.885L169.815 130.318L178.957 139.48L198.252 120.142L201.811 123.709L178.945 146.602L178.945 146.602Z" fill="#57B894"/>
</svg>
